<svg version="1" xmlns="http://www.w3.org/2000/svg" width="972" height="972" viewBox="0 0 729.000000 729.000000"><path d="M174.6 72.2c-5.8 1.2-13.1 5.4-16.7 9.7-1.9 2.1-13.5 21.6-25.9 43.2-12.4 21.6-23 40.2-23.7 41.4-.7 1.1-1.5 2.6-1.9 3.4-.8 1.5-13.7 24.3-15.4 27.1-.5.8-14.1 24.7-30.4 53-16.2 28.3-35.4 61.8-42.6 74.5-7.3 12.6-13.9 24.8-14.7 27-2.1 5.8-1.9 16.3.4 21.6 1.1 2.4 10.9 19.9 21.8 38.9s20.9 36.5 22.3 39c1.3 2.5 4 7.2 6 10.5 1.9 3.3 4.6 8 6 10.5 1.4 2.5 16.7 29.2 34 59.5 17.3 30.2 32.3 56.3 33.2 58 18.9 33.4 31.6 54.8 33.7 57 3.5 3.5 9.7 7.4 13.7 8.7 3.9 1.3 106.4 1.8 112.1.6 11.9-2.6 17.6-8.2 28.1-27.4 4.3-8 9-16.7 10.4-19.2 2.9-5.3 31.4-57.3 35.2-64.2 1.4-2.5 5.3-9.7 8.8-16 8.6-15.7 11.1-20.3 15.9-29 10.7-19.3 12.5-24.8 10.6-34-2.2-10.7-7.6-17.9-16.9-22.8-6.9-3.5-17.7-4-25.6-1-7.1 2.8-14.3 10.1-19.3 19.9-2.1 4-4.3 8.1-4.8 8.9-.8 1.3-5 9-24.4 44.5l-12 22c-13.8 25.2-18.9 34.5-23 42-2.1 3.8-4.8 8.6-6 10.5l-2.2 3.5-29.4-.1c-16.2-.1-29.7-.2-30-.3-.3 0-1.4-1.8-2.6-3.9-2-3.7-72.5-127.3-74.2-130.2-.9-1.4-21.8-37.9-25.9-45-1.1-1.9-8.3-14.5-16-28-8-13.9-13.7-24.9-13.3-25.5.5-.5 1.9-3 3.3-5.5S83 337.7 92 322s17.4-30.4 18.7-32.8c1.3-2.3 5.3-9.3 8.9-15.4 3.5-6.1 6.4-11.2 6.4-11.4 0-.3 2-3.7 4.3-7.7 4.4-7.3 35.1-60.9 40.2-70.2 1.5-2.8 3.1-5.5 3.5-6 .5-.6 2.3-3.7 4-7 1.8-3.3 3.9-6.7 4.6-7.5.7-.8 1.3-1.8 1.3-2.3 0-.4 2.4-4.9 5.4-10 3-5 6.2-10.6 7.1-12.4.9-1.7 2.2-3.5 2.8-4 .7-.4 14.2-.8 30.1-.8 22.9 0 28.6.2 28.2 1.3-.2.7-9.7 17.1-21.1 36.5-11.3 19.3-21.5 36.8-22.6 38.7-1.1 1.9-5.7 9.8-10.3 17.5-4.5 7.7-15.3 26.1-24 41-8.7 14.8-19.4 33.1-23.8 40.5-4.4 7.4-8.8 15-9.9 16.7-1 1.8-2.8 5-4 7-6.4 11.1-7.2 13.6-7.2 21.3 0 9.2 1 11.5 13.6 32 5.2 8.5 20.6 33.6 34.1 55.7s25.4 41.1 26.4 42.3c7.9 9.4 24.3 13.2 35.6 8.2 9.9-4.4 15.7-11.1 18.3-21.3 2.7-10.4.9-17.6-7.4-30.9-3.6-5.7-13.6-22.1-18.3-29.8-.9-1.5-8.9-14.5-17.8-29-8.8-14.4-16.1-26.7-16.1-27.3 0-.9 15.6-27.7 82.3-141.4 48.9-83.3 56.3-96.1 57.9-100.1 6.2-15.9-3.9-35.8-20.6-40.6-4.7-1.3-141.9-1.9-148-.6z"/><path d="M442.5 71.8c-8.4 1.2-17.4 6.6-21.8 12.9-1.4 2.1-12.7 20.4-25.2 40.8-12.5 20.3-23.7 38.6-25 40.5-3.5 5.3-51.1 83.2-52.4 85.7-2.8 5.4-3.1 16.3-.6 23.2 7.6 21.5 35.5 27.8 51.6 11.6 2.8-2.8 24.4-36.8 39-61.3.9-1.5 6.8-11.2 13.3-21.5 6.4-10.4 11.6-19.1 11.6-19.3 0-.3.5-1 1-1.7.6-.7 7.4-11.6 15.2-24.2 7.7-12.7 14.2-23.2 14.5-23.5.2-.3 13.9-.5 30.4-.5h30l19.1 32c22.3 37.5 25.9 43.4 27.6 46 .7 1.1 1.5 2.8 1.8 3.7.4 1 1 1.8 1.5 1.8s.9.5.9 1c0 .6 1.5 3.4 3.3 6.3 1.8 2.9 3.6 5.9 4 6.7.4.8 3.1 5.4 6 10.2 12 20 69.3 115.9 70.4 117.9.9 1.8.7 2.9-1.7 6.8-1.5 2.6-3.8 6.7-5.2 9.2-3.2 5.6-45.9 80.2-48.6 84.9-1.2 1.9-2.7 4.7-3.5 6.1-3.4 6.3-20.1 35.6-21.6 37.9-.9 1.4-2.2 3.6-2.9 5-.7 1.4-11.7 20.7-24.5 43l-23.2 40.5h-29.3c-16.2 0-29.9-.3-30.5-.7-.8-.5-.8-1 0-2 1.1-1.4 11.3-18.8 11.3-19.4 0-.2 3-5.6 6.6-12.1 3.7-6.5 8-14.3 9.7-17.3 1.6-3 3.8-6.9 4.7-8.5 1-1.7 2.7-4.6 3.7-6.5 1.1-1.9 8.6-15.4 16.8-30 16.1-28.8 16.6-29.7 21.5-38.5 10.3-18.5 30.2-54.2 31-55.5 3.4-5.7 17.8-32.1 18.8-34.6 2-4.8 2.3-13.4.7-18.9-1.5-5.5-68.2-126.5-71.8-130.4-9.8-10.6-25.6-13.5-38.2-7-13.5 7-20.2 23.3-15.3 37.5.8 2.3 8.8 17.3 17.8 33.4 8.9 16.1 17.4 31.4 18.7 33.9 1.4 2.5 3.3 5.9 4.3 7.6.9 1.6 3.2 5.7 5 9 1.8 3.3 5 9.1 7.2 13 2.1 3.8 4.4 7.9 4.9 9.1.9 1.7-.4 4.8-8.6 19.5-5.4 9.6-10.8 19.3-12.1 21.6-1.3 2.4-4.3 7.8-6.7 12-2.5 4.3-13 23.1-23.4 41.8-10.5 18.7-27.7 49.5-38.3 68.5-46.5 83.2-51.7 92.7-53 95.8-1.5 3.7-1.8 12.8-.6 18.2 2.2 10.5 12.6 20.3 24.1 22.8 2.2.4 36 .8 75 .7l71-.1 5.6-2.6c3.2-1.4 7.5-4.4 9.6-6.5 2.6-2.6 13.3-20.3 30.5-50.4 14.6-25.5 43.7-76.6 64.8-113.4 21.1-36.9 39.1-68.4 40-70 8.3-14.8 14.3-25.2 14.9-26 2.5-3.3 8-14.7 9-18.8 1.4-5.7.6-13.7-1.8-19.3-1.6-3.5-30.2-52.2-49.1-83.4-3.2-5.2-6.7-11.1-7.8-13-1-1.9-7.2-12.3-13.7-23-6.5-10.7-12.5-20.9-13.5-22.5-.9-1.7-5.9-10-11-18.5s-9.8-16.4-10.4-17.5c-.6-1.1-8.5-14.4-17.6-29.5-9.1-15.1-16.7-28-17-28.5-2.2-4.4-16-26.8-18.4-29.9-3.5-4.5-11.6-10-16.6-11.2-3.2-.7-102.8-1.3-107.5-.6z"/></svg>